ModelForces
version=1
nRows=5
nColumns=94
inDegrees=yes

This file contains the forces exerted on a model during a simulation.

A force is a generalized force, meaning that it can be either a force (N) or a torque (Nm).

Units are S.I. units (second, meters, Newtons, ...)
Angles are in degrees.

endheader 
time	addbrev_l	addlong_l	addmagDist_l	addmagIsch_l	addmagMid_l	addmagProx_l	bflh_l	bfsh_l	edl_l	ehl_l	fdl_l	fhl_l	gaslat_l	gasmed_l	glmax1_l	glmax2_l	glmax3_l	glmed1_l	glmed2_l	glmed3_l	glmin1_l	glmin2_l	glmin3_l	grac_l	iliacus_l	perbrev_l	perlong_l	piri_l	psoas_l	recfem_l	sart_l	semimem_l	semiten_l	soleus_l	tfl_l	tibant_l	tibpost_l	vasint_l	vaslat_l	vasmed_l	addbrev_r	addlong_r	addmagDist_r	addmagIsch_r	addmagMid_r	addmagProx_r	bflh_r	bfsh_r	edl_r	ehl_r	fdl_r	fhl_r	gaslat_r	gasmed_r	glmax1_r	glmax2_r	glmax3_r	glmed1_r	glmed2_r	glmed3_r	glmin1_r	glmin2_r	glmin3_r	grac_r	iliacus_r	perbrev_r	perlong_r	piri_r	psoas_r	recfem_r	sart_r	semimem_r	semiten_r	soleus_r	tfl_r	tibant_r	tibpost_r	vasint_r	vaslat_r	vasmed_r	lumbar_extension	lumbar_bending	lumbar_rotation	arm_flex_l	arm_add_l	arm_rot_l	arm_flex_r	arm_add_r	arm_rot_r	elbow_flex_l	elbow_flex_r	pro_sup_l	pro_sup_r	
          3.80000000	          4.62498231	          0.87775819	          7.85863962	          6.15127310	          6.86702709	         31.33450560	         14.07354886	        102.77205841	         72.70434070	         28.90435276	          4.74458417	          9.20538597	         75.47637312	        106.88267547	         25.56895603	         56.44860358	         10.68387469	         10.56245821	         11.39609390	         21.67119989	          2.47330483	          5.72675390	         10.04760506	          7.16269315	        106.02510864	         11.64946020	         34.19484236	         85.41286453	        654.16696466	         19.09862088	         88.88704608	         24.54222837	          4.19835306	         86.24182031	          1.08842539	        162.16528851	         18.60917359	         93.97604664	         90.04529574	         41.63978954	         20.48383361	         41.44568275	          5.92072040	          4.33277618	         26.52622983	         98.59373845	        185.12203324	         88.27935897	        227.85406342	         14.51420230	          2.26551693	          5.13763655	        132.76412660	        346.58991217	          7.74715476	         11.73769269	         30.45925589	          5.67858020	          5.20202166	          6.64259968	          2.12609355	          2.17360696	          0.00821106	          4.69073959	         10.63055814	         35.25573844	        125.33657641	          0.62389846	        219.82925262	          1.91873641	         76.71191823	         18.03447478	          3.01976306	         53.11527800	          0.00308475	        437.09830972	          7.49915452	         17.15105501	         56.61593485	         26.68827158	       -108.58032954	        -38.00187560	        -26.63648717	         12.98900450	         41.45530382	        106.05006740	        -95.17813240	       -126.06938891	         10.87008730	         22.57491501	       -109.82588625	          6.18750072	          1.34780821	
          3.81000000	          4.69924017	          0.78306526	          7.70999647	          5.78916106	          6.98835792	         31.15048089	         11.11392029	         69.90689839	         67.51428402	         14.69568393	          5.14412356	          9.90165538	          3.84619131	        140.20806628	         21.17751359	         46.46672111	         10.57976643	          8.52487329	          9.32465102	         17.70913477	          2.44364356	          4.66241888	          8.04035223	          1.91170205	         88.58119133	          9.28358680	         27.26841329	         65.06694858	        748.18108099	         13.29898380	         91.35700098	         19.23289179	          3.93734059	         83.48698610	          0.29705264	        148.64978748	         20.13728343	         81.86337312	         79.28605269	         36.65290851	         16.54851849	         32.91962600	          5.65024044	          4.07977731	         21.50521325	         81.46094266	        224.33503682	         97.11667683	        252.09837459	          0.00564117	          3.01157627	          6.86596519	        154.53581896	        349.50742258	          7.78209136	         28.54285678	         25.24322885	          5.57012395	          5.20185993	          6.69569508	          2.08100246	          2.16775034	          0.00968265	          3.66661932	          8.81171268	         44.15095765	        138.56579073	          0.72828697	        181.90499441	          2.48159636	         79.48198471	         14.95775371	          2.61068674	         70.12799372	          0.00066497	        492.72546080	         11.37339106	         16.01676832	         50.88782210	         23.88782218	       -107.70683747	        -44.35590534	        -37.67886456	         47.87300155	         68.54415301	         40.96025825	       -107.26534137	       -132.43379066	        -29.83719137	        -20.44289988	        -43.11031347	          1.14507388	         -4.11916187	
          3.82000000	         18.37129232	          1.00012487	          7.44657342	          5.34070248	          7.02666353	         99.94579395	          0.01072303	        117.24516671	         69.75672106	         15.43173328	          3.04144815	          7.89333631	        142.76039660	         43.19813022	         17.55018380	         38.25691570	          3.98918812	          7.78132990	          7.57245762	         14.48297154	          2.38982095	          3.78318191	          6.46097316	         93.24391542	         74.72458428	          7.24133110	         20.87228155	         53.46888894	        431.55276492	         11.01421490	         93.70923547	          0.00569365	          0.04662229	         80.68613573	          0.01540172	        180.60976884	         11.73274529	         70.94615305	         69.27082083	         31.97147216	         13.49807314	         26.83160411	          5.37878176	          3.78411230	         17.40071121	         67.35622411	        244.68153037	          2.40535226	        258.85247886	         41.83989175	          4.00427266	          8.95959315	        195.64328670	        359.74935608	          7.73571850	        120.57737501	         20.70731623	          5.52276202	          5.18124915	          6.66415894	          2.07419279	          2.18044853	          0.00253329	          2.87216084	          7.43700961	         55.15435343	        149.72354306	          1.20538039	        150.64553547	          3.18552221	        178.58705928	         11.76829478	          2.09824406	         79.34962255	          0.03265780	        519.04286821	         16.29405460	         17.04414929	         50.15931744	         24.00565898	        -58.63971333	        -39.10006423	         -9.09271966	         73.49373641	         88.79884339	         36.79912514	        -39.54567049	       -136.81402302	        -61.47456723	        -52.57012388	          7.07135992	          0.38612876	         -8.64642589	
          3.83000000	         15.84406570	          0.96614027	          7.17826164	          4.92685729	          7.38253971	         79.25405521	        180.84691202	        128.12083382	         61.15530846	         12.29187477	          6.02827486	         13.25471325	        178.05073774	        137.21018628	         14.43319327	         31.31142418	        337.79679634	          7.30130651	          6.63883079	         11.61732580	          2.27662528	          2.96083821	          4.85506009	         94.27855619	         63.18624907	          5.88626291	         17.89079072	         42.08685705	        633.29195555	          9.37921580	         86.89983262	        442.04841028	        124.32392505	         77.78005898	          0.00897887	        277.15191390	         29.93506595	         60.34368161	         62.11125104	         30.44074829	         10.65316171	         20.71745779	          5.09663369	          3.53736655	         13.83430125	         54.66621013	        245.40513456	        391.83975327	        247.99626074	         40.66466001	          4.85376427	         10.60434076	        213.77462336	        365.90276196	          7.87515319	        122.80342301	         17.09772509	          5.83137228	          5.45512956	          6.99825313	          2.15773156	          2.32153843	          0.11272341	          2.18825868	          7.33729688	         49.48119887	        149.35484454	          1.74612788	        131.22464403	          3.74428293	        212.20061176	          0.00616203	          6.99521189	         81.59392089	          0.11737152	        535.58964454	         20.75687916	         18.05056877	         53.22479481	         25.41189903	         -4.14534464	        -27.78495152	         56.36896339	         92.30545937	        104.04514254	         64.68505230	         13.93198346	       -139.17876638	        -86.12994785	        -19.60803959	         44.14053469	          0.78244327	        -15.40236475	
          3.84000000	         13.65098426	          1.29625147	          7.91700214	          4.40651281	          8.08832124	        144.75491894	        166.80175137	         30.84031973	         88.88660482	         10.61030835	          8.24218637	         12.83011641	        171.69164571	        189.13059119	         11.70692694	         25.39579218	        291.17477886	          6.59288938	          6.14327434	          9.06184209	          2.11381276	          2.52623507	          3.40450578	        129.05498411	         55.93230274	          3.81041127	          9.12113707	         32.59353613	         35.35109858	          8.48109385	         52.88609835	        447.76120106	         94.64444760	         75.23526429	          0.00673948	        291.27256387	         39.40014610	         50.82663588	         62.32540099	         30.61630367	          8.04014685	         14.81409522	          4.74341165	          3.25879254	         10.66167918	         43.27785622	        214.57020297	        261.08230316	        216.44688378	         35.36776309	          5.42034226	         11.58576352	        219.18617505	        355.55106523	          8.67089579	        108.67784530	         14.11576858	          6.44531590	          5.98190943	          7.77117104	          2.31438150	          2.58992556	          0.36197467	          1.58883486	          7.10089014	         59.99616979	        117.78107724	          3.88042585	         70.91539955	          4.26240878	        225.45777300	        373.08339049	          5.44207541	         89.31757493	          0.27466636	        528.04377978	         23.22109550	         18.90306036	         55.83727871	         26.63585632	         71.44075084	        -33.91772023	         81.28971163	        106.32772000	         40.87878217	         85.27853329	         46.02922404	       -138.61653073	        -41.81560986	         10.14133053	         66.99123952	          2.51081669	         -2.73472192	
